<svg width="372" height="372" viewBox="0 0 372 372" fill="none" xmlns="http://www.w3.org/2000/svg">
<path d="M38.9373 93.9387L166.437 33.9387L182.937 81.4387L151.937 90.9387H184.937L213.937 116.439L45.4373 119.939L38.9373 93.9387Z" fill="#00B7FD"/>
<path d="M51.9373 134.939L177.937 129.439L190.437 168.439L173.937 169.939L181.937 209.439L149.937 216.439L51.9373 185.939V134.939Z" fill="#00B7FF"/>
<path d="M40.4373 199.439L88.4373 211.939L159.437 239.939L178.437 294.439L111.937 253.439L41.9373 228.439L40.4373 199.439Z" fill="#00B7FE"/>
<path d="M198.437 219.439H326.437V241.939H183.437L198.437 219.439Z" fill="#00B7FC"/>
<path d="M223.937 114.939H325.937V134.939H207.937L223.937 114.939Z" fill="#00B9FE"/>
<path d="M247.437 168.439H324.172C325.18 168.439 326.031 169.19 326.156 170.191L326.507 172.997C327.124 177.936 327.081 182.935 326.377 187.863L326.183 189.222C326.042 190.207 325.198 190.939 324.203 190.939H247.437V168.439Z" fill="#42FF31"/>
<ellipse cx="223.437" cy="179.939" rx="15.5" ry="15" fill="#42FF31"/>
<path d="M150.937 10.4388C97.8043 14.2261 28.9702 34.8546 20.4372 44.9389C3.93711 64.4387 9.94113 215.137 13.9372 238.939C25.4373 307.439 184.937 361.939 184.937 361.939C184.937 361.939 255.297 343.588 290.437 315.439C322.596 289.678 345.903 272.141 354.937 231.939C364.937 187.439 363.37 62.5111 357.937 50.4389C348.937 30.4389 227.437 10.4389 227.437 10.4389C227.437 10.4389 180.573 8.32639 150.937 10.4388Z" stroke="#00B5FC" stroke-width="19"/>
</svg>
